<svg width="248" height="54" fill="none" xmlns="http://www.w3.org/2000/svg"><path fill-rule="evenodd" clip-rule="evenodd" d="M115.651 24.491c2.453 6.642 4.461 13.435 5.683 20.517a.32.32 0 00.093.044l4.621.004c3.852.002 7.704.004 11.557.022.516.003.603-.285.711-.64l.003-.011a3579.56 3579.56 0 013.118-10.485 1294.44 1294.44 0 012.8-9.265c.046-.136.148-.246.249-.356.049-.053.097-.105.139-.16.049.057.105.11.161.161.109.101.215.2.255.323.242.705.454 1.417.665 2.128l.104.352.001.001c1.72 5.73 3.441 11.46 5.126 17.196.173.588.426.759 1.041.759h15.979c2.115-12.38 6.691-23.857 11.727-35.18h-16.533c-.01.057-.021.105-.031.15-.018.08-.033.146-.033.21-.183 3.495-1.08 6.815-2.377 10.06-1.442 3.597-2.833 7.23-3.608 11.056-.025.121-.133.225-.243.33-.05.047-.1.094-.142.144-.048-.056-.106-.107-.163-.158-.112-.1-.222-.199-.26-.323-.516-1.634-1.018-3.275-1.521-4.916l-.59-1.926-.732-2.368c-1.219-3.95-2.439-7.898-3.68-11.848a.866.866 0 00-.641-.47 45.152 45.152 0 00-2.413-.026c-.29.002-.579.004-.868.004h-6.143a3.305 3.305 0 00-.147.344 8291.776 8291.776 0 01-6.527 20.97 3.002 3.002 0 01-.506.691 2.762 2.762 0 01-.423-.723c-.677-3.248-1.843-6.343-3.011-9.441l-.193-.513-.278-.734c-.885-2.332-1.772-4.668-2.096-7.164-.103-.784-.196-1.57-.288-2.35l-.122-1.03h-12.009c1.768 4.205 2.313 8.863 1.637 13.976-.029.217-.059.432-.092.645zm-51.618 0c-2.453 6.642-4.46 13.435-5.683 20.517a.323.323 0 01-.093.044l-4.62.004c-3.853.002-7.705.004-11.557.022-.517.003-.604-.285-.711-.64l-.004-.011a3674.32 3674.32 0 00-3.117-10.485 1326.03 1326.03 0 00-2.8-9.265c-.047-.136-.148-.246-.25-.356-.048-.053-.096-.105-.139-.16a2.03 2.03 0 01-.16.161c-.11.101-.216.2-.256.323a52.77 52.77 0 00-.664 2.127l-.105.353c-1.72 5.73-3.441 11.46-5.127 17.197-.173.588-.426.759-1.041.759H11.727C9.612 32.7 5.037 21.224 0 9.9h16.533c.01.057.021.105.031.15.019.08.033.146.033.21.183 3.495 1.08 6.815 2.378 10.06 1.442 3.597 2.832 7.23 3.608 11.056.024.121.133.225.242.33.05.047.1.094.142.144.049-.056.106-.107.163-.158.112-.1.222-.199.26-.323a609.855 609.855 0 001.521-4.917l.59-1.925.732-2.368c1.22-3.949 2.439-7.898 3.68-11.848a.855.855 0 01.642-.47 45.13 45.13 0 012.413-.026c.29.002.578.004.867.004h6.143c.056.112.105.226.147.344a8210.86 8210.86 0 006.527 20.97c.135.253.305.486.506.691.178-.218.32-.462.423-.723.677-3.248 1.844-6.343 3.011-9.441.065-.171.13-.342.193-.513l.278-.734c.885-2.332 1.772-4.668 2.097-7.164.102-.784.195-1.57.287-2.35l.123-1.03h12.008c-1.768 4.205-2.313 8.863-1.637 13.976.029.217.06.432.092.645z" fill="#00D2DF"/><path fill-rule="evenodd" clip-rule="evenodd" d="M76.998 4.025C79.727 1.93 82.746.622 86.078.111c-1.193.996-2.283 2.268-3.27 3.74-2.722 4.038-4.461 9.234-5.34 15.451-.876 6.196-.644 11.625.846 16.19l.003.01c.494 1.488 1.114 2.84 1.875 3.998-2.828-1.328-5.21-3.254-7.163-5.774-3.36-4.39-4.661-9.562-3.862-15.602.803-6.067 3.42-10.732 7.828-14.097l.003-.002zm25.844 33.534c-2.711 2.069-5.72 3.363-9.05 3.872 1.174-.982 2.248-2.232 3.223-3.678 2.736-4.058 4.483-9.253 5.359-15.451.876-6.2.632-11.633-.885-16.204-.5-1.509-1.128-2.877-1.9-4.049 2.829 1.336 5.218 3.273 7.184 5.809 3.409 4.398 4.734 9.572 3.936 15.61-.799 6.037-3.427 10.702-7.867 14.09l.709.93-.709-.93zM84.752 5.123c-2.459 3.646-4.111 8.466-4.959 14.46-.843 5.969-.592 11.018.756 15.147 1.362 4.107 3.506 6.336 6.43 6.688 2.937.354 5.635-1.292 8.093-4.939 2.474-3.669 4.132-8.488 4.976-14.458.844-5.969.58-11.02-.79-15.152-1.371-4.131-3.52-6.373-6.444-6.726-2.913-.35-5.6 1.31-8.062 4.98z" fill="url(#paint0_radial_2_11680)"/><path fill-rule="evenodd" clip-rule="evenodd" d="M80.834 43.91c1.752.667 3.65 1.132 5.691 1.395 1.617.208 3.178.271 4.683.19l-.625 4.127a5.118 5.118 0 01-5.8 4.293l-.307-.045a5.067 5.067 0 01-4.276-5.778l.634-4.182z" fill="#F2AB23"/><path d="M216.212 25.422c0-1.91.628-3.46 1.882-4.648 1.255-1.213 2.889-1.82 4.902-1.82h3.216v4.377h-1.922c-.601 0-1.111.193-1.529.58-.392.362-.588.865-.588 1.51v1.047h3.843v5.112h-3.843v13.594h-5.961V31.58h-3.137v-5.112h3.137v-1.046zm-21.979-5.836v18.53c0 .562.154 1.022.463 1.38.309.358.708.537 1.196.537h2.124v5.141h-3.822c-1.879 0-3.32-.447-4.324-1.343-.978-.92-1.467-2.289-1.467-4.105v-20.14h5.83zm52.326 23.431c-.908.799-2.076 1.417-3.504 1.855a15.648 15.648 0 01-4.361.618c-1.946 0-3.698-.4-5.256-1.198a9.272 9.272 0 01-3.66-3.4c-.882-1.493-1.323-3.231-1.323-5.214 0-1.803.415-3.451 1.245-4.945a9.257 9.257 0 013.544-3.516c1.531-.875 3.257-1.313 5.178-1.313 1.843 0 3.491.425 4.945 1.275 1.453.85 2.582 2.06 3.387 3.631.83 1.545 1.246 3.361 1.246 5.447v1.236h-13.394c.156 1.005.649 1.842 1.48 2.511.856.644 1.947.966 3.27.966.753 0 1.597-.142 2.531-.425.934-.309 1.661-.695 2.18-1.159l2.492 3.631zm-4.205-9.31c-.104-.875-.48-1.648-1.129-2.317-.649-.67-1.583-1.005-2.803-1.005-1.168 0-2.077.335-2.726 1.005-.648.67-1.038 1.442-1.168 2.318h7.826zm-34.086-7.171v18.638h-5.767V26.536h5.767zm-5.767-9.161h5.767v5.37h-5.767z" fill="#00D2DF"/><defs><radialGradient id="paint0_radial_2_11680" cx="0" cy="0" r="1" gradientUnits="userSpaceOnUse" gradientTransform="matrix(-1.54139 34.1122 -34.2994 -1.54985 88.597 8.434)"><stop stop-color="#E082FF"/><stop offset="1" stop-color="#9700FF"/></radialGradient></defs></svg>