<svg width="248" height="54" viewBox="0 0 248 54" fill="none" xmlns="http://www.w3.org/2000/svg">
<path fill-rule="evenodd" clip-rule="evenodd" d="M115.651 24.4913C118.104 31.1326 120.112 37.9264 121.334 45.008C121.362 45.0276 121.394 45.0425 121.427 45.0522C122.967 45.0541 124.508 45.0548 126.048 45.0556C129.9 45.0575 133.752 45.0595 137.605 45.0775C138.121 45.0806 138.208 44.793 138.316 44.438L138.319 44.4268C139.353 40.9308 140.392 37.4359 141.437 33.942C142.359 30.8482 143.293 27.7598 144.237 24.6766C144.283 24.5414 144.385 24.431 144.486 24.3207C144.535 24.2685 144.583 24.2164 144.625 24.1616C144.674 24.2182 144.73 24.2705 144.786 24.3221C144.895 24.4231 145.001 24.5216 145.041 24.645C145.283 25.3498 145.495 26.0617 145.706 26.7726C145.74 26.89 145.775 27.0074 145.81 27.1248L145.811 27.1263C147.531 32.8563 149.252 38.5862 150.937 44.3225C151.11 44.9101 151.363 45.0807 151.978 45.0807H167.275H167.957C170.072 32.7005 174.648 21.2237 179.684 9.90181H163.151C163.141 9.95758 163.13 10.0063 163.12 10.0503C163.102 10.1311 163.087 10.1965 163.087 10.2619C162.904 13.7558 162.007 17.0759 160.71 20.3203C159.268 23.9184 157.877 27.5513 157.102 31.3768C157.077 31.4983 156.969 31.6019 156.859 31.7061C156.809 31.7536 156.759 31.8012 156.717 31.8507C156.669 31.7952 156.611 31.7437 156.554 31.6926C156.442 31.5925 156.332 31.494 156.294 31.3705C155.778 29.7359 155.276 28.0948 154.773 26.4542C154.577 25.8119 154.38 25.1698 154.183 24.5281C153.939 23.7386 153.695 22.9492 153.451 22.1597C152.232 18.2106 151.012 14.2616 149.771 10.3125C149.71 10.189 149.62 10.0818 149.509 9.99982C149.397 9.91788 149.267 9.86367 149.13 9.84179C148.326 9.80462 147.521 9.81016 146.717 9.81569C146.427 9.81768 146.138 9.81967 145.849 9.81967H139.706C139.651 9.93158 139.601 10.0465 139.559 10.164C137.393 17.156 135.217 24.1458 133.032 31.1336C132.898 31.3867 132.727 31.6196 132.526 31.8254C132.349 31.6068 132.206 31.3629 132.103 31.102C131.426 27.8537 130.26 24.7586 129.092 21.6608C129.028 21.4899 128.963 21.3189 128.899 21.1479C128.807 20.9033 128.714 20.6588 128.621 20.4143C127.736 18.0821 126.849 15.7465 126.525 13.2504C126.422 12.4658 126.329 11.6796 126.237 10.8993C126.196 10.5549 126.156 10.2117 126.115 9.87022L114.106 9.87022C115.874 14.0746 116.419 18.7333 115.743 23.8463C115.714 24.0626 115.684 24.2776 115.651 24.4913Z" fill="#00D2DF"/>
<path fill-rule="evenodd" clip-rule="evenodd" d="M64.033 24.4913C61.5803 31.1326 59.5723 37.9264 58.3504 45.008C58.322 45.0276 58.2907 45.0425 58.2575 45.0522C56.7171 45.0541 55.1767 45.0548 53.6363 45.0556C49.7841 45.0575 45.9319 45.0595 42.0798 45.0775C41.563 45.0806 41.476 44.793 41.3687 44.438L41.3653 44.4268C40.3314 40.9308 39.2922 37.4359 38.2476 33.942C37.3248 30.8482 36.3914 27.7598 35.4472 24.6766C35.4015 24.5414 35.2997 24.431 35.1979 24.3207C35.1498 24.2685 35.1017 24.2164 35.0595 24.1616C35.0108 24.2182 34.9544 24.2705 34.8987 24.3221C34.7896 24.4231 34.6833 24.5216 34.643 24.645C34.401 25.3498 34.1897 26.0616 33.9787 26.7724C33.9439 26.8899 33.909 27.0074 33.874 27.1248C32.1534 32.8553 30.4328 38.5857 28.7474 44.3225C28.5744 44.9101 28.3212 45.0807 27.706 45.0807H12.4095H11.727C9.61229 32.7005 5.03679 21.2237 -0.000106812 9.90181H16.5332C16.5434 9.95758 16.5544 10.0063 16.5643 10.0503C16.5826 10.1311 16.5973 10.1965 16.5973 10.2619C16.7799 13.7558 17.6771 17.0759 18.9748 20.3203C20.4166 23.9184 21.8072 27.5513 22.5826 31.3768C22.6068 31.4983 22.7157 31.6019 22.8251 31.7061C22.8749 31.7536 22.925 31.8012 22.9671 31.8507C23.0158 31.7952 23.0733 31.7437 23.1302 31.6926C23.242 31.5925 23.3519 31.494 23.3901 31.3705C23.9059 29.7357 24.4086 28.0943 24.9111 26.4535C25.1077 25.8114 25.3042 25.1695 25.5016 24.5281C25.7455 23.7389 25.9892 22.9496 26.2329 22.1604C27.4524 18.2111 28.6719 14.2618 29.9137 10.3125C29.9742 10.189 30.0641 10.0818 30.1757 9.99982C30.2872 9.91788 30.4172 9.86367 30.5545 9.84179C31.358 9.80462 32.1633 9.81016 32.9677 9.81569C33.2571 9.81768 33.5464 9.81967 33.8355 9.81967H39.9779C40.0336 9.93158 40.0828 10.0465 40.1253 10.164C42.2913 17.156 44.4669 24.1458 46.6521 31.1336C46.7867 31.3867 46.9572 31.6196 47.1583 31.8254C47.3357 31.6068 47.4783 31.3629 47.5813 31.102C48.2584 27.8537 49.4248 24.7586 50.5922 21.6608C50.6566 21.4899 50.7211 21.3189 50.7854 21.1479C50.8775 20.9033 50.9703 20.6588 51.0632 20.4143C51.9483 18.0821 52.8349 15.7465 53.1597 13.2504C53.2619 12.4658 53.3549 11.6797 53.4472 10.8994C53.488 10.555 53.5286 10.2117 53.5698 9.87022L65.5779 9.87022C63.8103 14.0746 63.2648 18.7333 63.9414 23.8463C63.97 24.0626 64.0006 24.2776 64.033 24.4913Z" fill="#00D2DF"/>
<path fill-rule="evenodd" clip-rule="evenodd" d="M76.9981 4.0251C79.7268 1.9294 82.7464 0.621501 86.0772 0.110728C84.8848 1.10656 83.795 2.37912 82.8078 3.85061C80.0857 7.88911 78.3467 13.0849 77.4679 19.3023C76.5921 25.4979 76.8241 30.9265 78.3137 35.4911L78.3136 35.4911L78.3172 35.5018C78.8111 36.9904 79.431 38.3412 80.1922 39.5005C77.3643 38.172 74.9827 36.2458 73.0286 33.7259C69.6697 29.3356 68.368 24.1641 69.1673 18.1237C69.9701 12.0573 72.5867 7.39186 76.9953 4.02729L76.9981 4.0251ZM102.842 37.5585C100.131 39.6275 97.1211 40.9219 93.7912 41.4306C94.9656 40.4485 96.0402 39.1989 97.0147 37.7534C99.7511 33.6948 101.498 28.5005 102.374 22.3015C103.25 16.1025 103.006 10.6685 101.489 6.09768C100.989 4.58942 100.361 3.22135 99.5884 2.04941C102.418 3.38492 104.807 5.32204 106.773 7.85751C110.182 12.2558 111.507 17.4296 110.709 23.4671C109.91 29.5045 107.282 34.17 102.842 37.5585L103.551 38.4878L102.842 37.5585ZM84.7519 5.12267C82.2934 8.7692 80.6406 13.5891 79.7935 19.5823C78.9497 25.5518 79.2015 30.6011 80.5489 34.7301C81.9114 38.8367 84.0551 41.0661 86.9798 41.4183C89.9163 41.7719 92.6138 40.1255 95.0722 36.479C97.5458 32.8101 99.2045 27.9909 100.048 22.0214C100.892 16.052 100.628 11.0013 99.2575 6.86944C97.8865 2.73759 95.7387 0.495567 92.814 0.143372C89.901 -0.207402 87.2137 1.45236 84.7519 5.12267Z" fill="url(#paint0_radial_2_11680)"/>
<path fill-rule="evenodd" clip-rule="evenodd" d="M80.8338 43.9103C82.5862 44.5772 84.4834 45.042 86.5255 45.3047C88.1416 45.5125 89.7026 45.5762 91.2085 45.4956L90.5834 49.6215C90.1621 52.4024 87.5648 54.3245 84.7822 53.9147L84.4757 53.8696C81.6931 53.4598 79.7789 50.8732 80.2002 48.0924L80.8338 43.9103Z" fill="#F2AB23"/>
<path d="M216.212 25.4219C216.212 23.5112 216.84 21.962 218.094 20.7743C219.349 19.5608 220.983 18.954 222.996 18.954H226.212V23.3305H224.29C223.689 23.3305 223.179 23.5241 222.761 23.9114C222.369 24.2729 222.173 24.7764 222.173 25.4219V26.4676H226.016V31.5799H222.173V45.1739H216.212V31.5799H213.075V26.4676H216.212V25.4219Z" fill="#00D2DF"/>
<path d="M194.233 19.5859V38.1152C194.233 38.6779 194.387 39.1383 194.696 39.4963C195.005 39.8544 195.404 40.0334 195.892 40.0334H198.016V45.174H194.194C192.315 45.174 190.874 44.7265 189.87 43.8313C188.892 42.9106 188.403 41.5423 188.403 39.7265V19.5859H194.233Z" fill="#00D2DF"/>
<path d="M246.559 43.0175C245.651 43.8159 244.483 44.434 243.055 44.8718C241.627 45.2839 240.174 45.4899 238.694 45.4899C236.748 45.4899 234.996 45.0907 233.438 44.2924C231.907 43.494 230.687 42.3608 229.778 40.8928C228.896 39.3991 228.455 37.6607 228.455 35.6776C228.455 33.8749 228.87 32.2266 229.7 30.7329C230.557 29.2391 231.738 28.0673 233.244 27.2174C234.775 26.3418 236.501 25.904 238.422 25.904C240.265 25.904 241.913 26.3289 243.367 27.1788C244.82 28.0287 245.949 29.2391 246.754 30.8101C247.584 32.3554 248 34.171 248 36.2571V37.4933H234.606C234.762 38.4977 235.255 39.3347 236.086 40.0043C236.942 40.6482 238.033 40.9701 239.356 40.9701C240.109 40.9701 240.953 40.8284 241.887 40.5452C242.821 40.2361 243.548 39.8498 244.067 39.3862L246.559 43.0175ZM242.354 33.7075C242.25 32.8318 241.874 32.0592 241.225 31.3896C240.576 30.72 239.642 30.3852 238.422 30.3852C237.254 30.3852 236.345 30.72 235.696 31.3896C235.048 32.0592 234.658 32.8318 234.528 33.7075H242.354Z" fill="#00D2DF"/>
<path d="M208.268 26.5359V45.1741H202.501V26.5359H208.268Z" fill="#00D2DF"/>
<rect x="202.501" y="17.3747" width="5.76743" height="5.37034" fill="#00D2DF"/>
<defs>
<radialGradient id="paint0_radial_2_11680" cx="0" cy="0" r="1" gradientUnits="userSpaceOnUse" gradientTransform="translate(88.5973 8.434) rotate(92.5872) scale(34.147 34.3344)">
<stop stop-color="#E082FF"/>
<stop offset="1" stop-color="#9700FF"/>
</radialGradient>
</defs>
</svg>
